<svg xmlns="http://www.w3.org/2000/svg" version="1.1" xmlns:xlink="http://www.w3.org/1999/xlink" xmlns:svgjs="http://svgjs.com/svgjs" width="1440" height="560" preserveAspectRatio="none" viewBox="0 0 1440 560"><g mask="url(&quot;#SvgjsMask1007&quot;)" fill="none"><rect width="1440" height="560" x="0" y="0" fill="rgba(26, 25, 25, 1)"></rect><path d="M1464 560L0 560 L0 373.65Q24.01 277.66, 120 301.67Q150.58 260.25, 192 290.84Q222.61 249.45, 264 280.06Q310.51 254.57, 336 301.08Q401.19 246.27, 456 311.47Q546.76 282.23, 576 372.99Q601.26 326.25, 648 351.52Q699.11 282.63, 768 333.73Q794.26 287.99, 840 314.25Q884.51 238.76, 960 283.27Q1019.22 270.49, 1032 329.7Q1049.96 275.66, 1104 293.62Q1189.67 259.3, 1224 344.97Q1300.04 301.01, 1344 377.06Q1364.51 277.57, 1464 298.09z" fill="rgba(35, 34, 34, 1)"></path><path d="M1512 560L0 560 L0 386.27Q74.74 341, 120 415.74Q194.58 370.32, 240 444.9Q262.92 347.82, 360 370.74Q387.28 326.02, 432 353.31Q512.34 313.65, 552 393.99Q617.23 339.22, 672 404.45Q745.67 358.12, 792 431.79Q822.02 389.81, 864 419.83Q913.15 348.98, 984 398.13Q1042.9 385.03, 1056 443.94Q1079.32 395.25, 1128 418.57Q1136.06 354.63, 1200 362.68Q1242.18 332.87, 1272 375.05Q1352.6 335.65, 1392 416.25Q1460.53 364.78, 1512 433.31z" fill="rgba(73, 72, 72, 1)"></path><path d="M1464 560L0 560 L0 503.73Q56.67 440.4, 120 497.08Q158.69 415.77, 240 454.47Q268.66 411.13, 312 439.79Q386.56 394.36, 432 468.92Q499.39 416.31, 552 483.7Q599.24 458.94, 624 506.17Q629.51 439.68, 696 445.19Q764.95 394.14, 816 463.1Q863.85 438.95, 888 486.79Q906.46 433.25, 960 451.71Q1010.53 382.24, 1080 432.77Q1170.2 402.97, 1200 493.17Q1200.21 421.38, 1272 421.6Q1339.49 369.09, 1392 436.58Q1444.97 417.55, 1464 470.53z" fill="rgba(163, 147, 147, 1)"></path><path d="M1464 560L0 560 L0 517.22Q46.6 491.82, 72 538.41Q149.16 495.57, 192 572.73Q235.16 543.89, 264 587.05Q292.91 495.96, 384 524.88Q408.64 477.52, 456 502.16Q521.63 447.79, 576 513.42Q659.06 476.48, 696 559.54Q721.03 512.57, 768 537.6Q852.65 502.25, 888 586.91Q910.88 489.79, 1008 512.67Q1050.75 483.42, 1080 526.17Q1125.92 500.09, 1152 546.01Q1228 502.01, 1272 578.01Q1300.48 486.49, 1392 514.97Q1433.68 484.65, 1464 526.33z" fill="white"></path></g><defs><mask id="SvgjsMask1007"><rect width="1440" height="560" fill="#ffffff"></rect></mask></defs></svg>